<?xml version="1.0" encoding="utf-8"?>
<!-- Generator: Adobe Illustrator 25.0.1, SVG Export Plug-In . SVG Version: 6.00 Build 0)  -->
<svg version="1.1" id="Layer_1" xmlns="http://www.w3.org/2000/svg" xmlns:xlink="http://www.w3.org/1999/xlink" x="0px" y="0px"
	 viewBox="0 0 57.41 49.07" style="enable-background:new 0 0 57.41 49.07;" xml:space="preserve">
<style type="text/css">
	.st0{fill:url(#SVGID_1_);}
	.st1{fill:url(#SVGID_2_);}
	.st2{fill:url(#SVGID_3_);}
	.st3{fill:url(#SVGID_4_);}
	.st4{fill:url(#SVGID_5_);}
	.st5{fill:url(#SVGID_6_);}
	.st6{fill:url(#SVGID_7_);}
	.st7{fill:url(#SVGID_8_);}
	.st8{fill:url(#SVGID_9_);}
</style>
<g>
	<g>
		<linearGradient id="SVGID_1_" gradientUnits="userSpaceOnUse" x1="48.5078" y1="23.5319" x2="9.3499" y2="23.5319">
			<stop  offset="0" style="stop-color:#3AC0F0"/>
			<stop  offset="0.1268" style="stop-color:#39BDEE"/>
			<stop  offset="0.2788" style="stop-color:#37B3E7"/>
			<stop  offset="0.4438" style="stop-color:#35A4DC"/>
			<stop  offset="0.618" style="stop-color:#338FCE"/>
			<stop  offset="0.7995" style="stop-color:#3176BC"/>
			<stop  offset="0.9844" style="stop-color:#2E5BAA"/>
			<stop  offset="1" style="stop-color:#2E59A8"/>
		</linearGradient>
		<rect x="22.9" y="19.64" class="st0" width="2.08" height="7.79"/>
		<linearGradient id="SVGID_2_" gradientUnits="userSpaceOnUse" x1="48.5078" y1="23.5317" x2="9.3499" y2="23.5317">
			<stop  offset="0" style="stop-color:#3AC0F0"/>
			<stop  offset="0.1268" style="stop-color:#39BDEE"/>
			<stop  offset="0.2788" style="stop-color:#37B3E7"/>
			<stop  offset="0.4438" style="stop-color:#35A4DC"/>
			<stop  offset="0.618" style="stop-color:#338FCE"/>
			<stop  offset="0.7995" style="stop-color:#3176BC"/>
			<stop  offset="0.9844" style="stop-color:#2E5BAA"/>
			<stop  offset="1" style="stop-color:#2E59A8"/>
		</linearGradient>
		<path class="st1" d="M25.36,27.8h-2.83v-8.54h2.83V27.8z M23.28,27.05h1.33v-7.04h-1.33V27.05z"/>
	</g>
	<linearGradient id="SVGID_3_" gradientUnits="userSpaceOnUse" x1="48.5078" y1="27.6399" x2="9.3499" y2="27.6399">
		<stop  offset="0" style="stop-color:#3AC0F0"/>
		<stop  offset="0.1268" style="stop-color:#39BDEE"/>
		<stop  offset="0.2788" style="stop-color:#37B3E7"/>
		<stop  offset="0.4438" style="stop-color:#35A4DC"/>
		<stop  offset="0.618" style="stop-color:#338FCE"/>
		<stop  offset="0.7995" style="stop-color:#3176BC"/>
		<stop  offset="0.9844" style="stop-color:#2E5BAA"/>
		<stop  offset="1" style="stop-color:#2E59A8"/>
	</linearGradient>
	<rect x="20.85" y="27.26" class="st2" width="14.22" height="0.75"/>
	<linearGradient id="SVGID_4_" gradientUnits="userSpaceOnUse" x1="48.5078" y1="21.8227" x2="9.3499" y2="21.8227">
		<stop  offset="0" style="stop-color:#3AC0F0"/>
		<stop  offset="0.1268" style="stop-color:#39BDEE"/>
		<stop  offset="0.2788" style="stop-color:#37B3E7"/>
		<stop  offset="0.4438" style="stop-color:#35A4DC"/>
		<stop  offset="0.618" style="stop-color:#338FCE"/>
		<stop  offset="0.7995" style="stop-color:#3176BC"/>
		<stop  offset="0.9844" style="stop-color:#2E5BAA"/>
		<stop  offset="1" style="stop-color:#2E59A8"/>
	</linearGradient>
	<path class="st3" d="M28.39,37.22c-8.49,0-15.4-6.91-15.4-15.4c0-8.49,6.91-15.4,15.4-15.4s15.4,6.91,15.4,15.4
		C43.79,30.31,36.88,37.22,28.39,37.22z M28.39,9.18c-6.97,0-12.65,5.67-12.65,12.65s5.67,12.65,12.65,12.65s12.65-5.67,12.65-12.65
		S35.36,9.18,28.39,9.18z"/>
	<linearGradient id="SVGID_5_" gradientUnits="userSpaceOnUse" x1="48.5078" y1="40.0619" x2="9.3499" y2="40.0619">
		<stop  offset="0" style="stop-color:#3AC0F0"/>
		<stop  offset="0.1268" style="stop-color:#39BDEE"/>
		<stop  offset="0.2788" style="stop-color:#37B3E7"/>
		<stop  offset="0.4438" style="stop-color:#35A4DC"/>
		<stop  offset="0.618" style="stop-color:#338FCE"/>
		<stop  offset="0.7995" style="stop-color:#3176BC"/>
		<stop  offset="0.9844" style="stop-color:#2E5BAA"/>
		<stop  offset="1" style="stop-color:#2E59A8"/>
	</linearGradient>
	<path class="st4" d="M38.82,36.57c1.99,2.59,3.99,5.18,5.98,7.78c0.28,0.37,0.57,0.74,0.85,1.11c0.31,0.41,0.61,0.72,1.12,0.86
		c0.45,0.12,1.05,0.07,1.44-0.19c0.77-0.49,1.31-1.73,0.67-2.57c-1.99-2.59-3.99-5.18-5.98-7.78c-0.28-0.37-0.57-0.74-0.85-1.11
		c-0.31-0.41-0.61-0.72-1.12-0.86c-0.45-0.12-1.05-0.07-1.44,0.19C38.73,34.49,38.18,35.73,38.82,36.57L38.82,36.57z"/>
	<g>
		<linearGradient id="SVGID_6_" gradientUnits="userSpaceOnUse" x1="48.5078" y1="22.418" x2="9.3499" y2="22.418">
			<stop  offset="0" style="stop-color:#3AC0F0"/>
			<stop  offset="0.1268" style="stop-color:#39BDEE"/>
			<stop  offset="0.2788" style="stop-color:#37B3E7"/>
			<stop  offset="0.4438" style="stop-color:#35A4DC"/>
			<stop  offset="0.618" style="stop-color:#338FCE"/>
			<stop  offset="0.7995" style="stop-color:#3176BC"/>
			<stop  offset="0.9844" style="stop-color:#2E5BAA"/>
			<stop  offset="1" style="stop-color:#2E59A8"/>
		</linearGradient>
		<rect x="26.92" y="17.41" class="st5" width="2.08" height="10.02"/>
		<linearGradient id="SVGID_7_" gradientUnits="userSpaceOnUse" x1="48.5078" y1="22.418" x2="9.3499" y2="22.418">
			<stop  offset="0" style="stop-color:#3AC0F0"/>
			<stop  offset="0.1268" style="stop-color:#39BDEE"/>
			<stop  offset="0.2788" style="stop-color:#37B3E7"/>
			<stop  offset="0.4438" style="stop-color:#35A4DC"/>
			<stop  offset="0.618" style="stop-color:#338FCE"/>
			<stop  offset="0.7995" style="stop-color:#3176BC"/>
			<stop  offset="0.9844" style="stop-color:#2E5BAA"/>
			<stop  offset="1" style="stop-color:#2E59A8"/>
		</linearGradient>
		<path class="st6" d="M29.38,27.8h-2.83V17.03h2.83V27.8z M27.3,27.05h1.33v-9.27H27.3V27.05z"/>
	</g>
	<g>
		<linearGradient id="SVGID_8_" gradientUnits="userSpaceOnUse" x1="48.5078" y1="20.9747" x2="9.3499" y2="20.9747">
			<stop  offset="0" style="stop-color:#3AC0F0"/>
			<stop  offset="0.1268" style="stop-color:#39BDEE"/>
			<stop  offset="0.2788" style="stop-color:#37B3E7"/>
			<stop  offset="0.4438" style="stop-color:#35A4DC"/>
			<stop  offset="0.618" style="stop-color:#338FCE"/>
			<stop  offset="0.7995" style="stop-color:#3176BC"/>
			<stop  offset="0.9844" style="stop-color:#2E5BAA"/>
			<stop  offset="1" style="stop-color:#2E59A8"/>
		</linearGradient>
		<rect x="30.94" y="14.74" class="st7" width="2.08" height="12.48"/>
		<linearGradient id="SVGID_9_" gradientUnits="userSpaceOnUse" x1="48.5078" y1="20.9748" x2="9.3499" y2="20.9748">
			<stop  offset="0" style="stop-color:#3AC0F0"/>
			<stop  offset="0.1268" style="stop-color:#39BDEE"/>
			<stop  offset="0.2788" style="stop-color:#37B3E7"/>
			<stop  offset="0.4438" style="stop-color:#35A4DC"/>
			<stop  offset="0.618" style="stop-color:#338FCE"/>
			<stop  offset="0.7995" style="stop-color:#3176BC"/>
			<stop  offset="0.9844" style="stop-color:#2E5BAA"/>
			<stop  offset="1" style="stop-color:#2E59A8"/>
		</linearGradient>
		<path class="st8" d="M33.4,27.59h-2.83V14.36h2.83V27.59z M31.32,26.84h1.33V15.11h-1.33V26.84z"/>
	</g>
</g>
</svg>
