<?xml version="1.0" encoding="utf-8"?>
<!-- Generator: Adobe Illustrator 25.0.1, SVG Export Plug-In . SVG Version: 6.00 Build 0)  -->
<svg version="1.1" id="Layer_1" xmlns="http://www.w3.org/2000/svg" xmlns:xlink="http://www.w3.org/1999/xlink" x="0px" y="0px"
	 viewBox="0 0 57.4 49.1" style="enable-background:new 0 0 57.4 49.1;" xml:space="preserve">
<style type="text/css">
	.st0{fill:#FFFFFF;}
</style>
<g>
	<g>
		<rect x="22.9" y="19.6" class="st0" width="2.1" height="7.8"/>
		<path class="st0" d="M25.4,27.8h-2.8v-8.5h2.8V27.8z M23.3,27h1.3v-7h-1.3V27z"/>
	</g>
	<rect x="20.9" y="27.3" class="st0" width="14.2" height="0.8"/>
	<path class="st0" d="M28.4,37.2c-8.5,0-15.4-6.9-15.4-15.4S19.9,6.4,28.4,6.4s15.4,6.9,15.4,15.4S36.9,37.2,28.4,37.2z M28.4,9.2
		c-7,0-12.6,5.7-12.6,12.6s5.7,12.6,12.6,12.6S41,28.8,41,21.8S35.4,9.2,28.4,9.2z"/>
	<path class="st0" d="M38.8,36.6c2,2.6,4,5.2,6,7.8c0.3,0.4,0.6,0.7,0.8,1.1c0.3,0.4,0.6,0.7,1.1,0.9c0.5,0.1,1,0.1,1.4-0.2
		c0.8-0.5,1.3-1.7,0.7-2.6c-2-2.6-4-5.2-6-7.8c-0.3-0.4-0.6-0.7-0.8-1.1c-0.3-0.4-0.6-0.7-1.1-0.9c-0.5-0.1-1-0.1-1.4,0.2
		C38.7,34.5,38.2,35.7,38.8,36.6L38.8,36.6z"/>
	<g>
		<rect x="26.9" y="17.4" class="st0" width="2.1" height="10"/>
		<path class="st0" d="M29.4,27.8h-2.8V17h2.8V27.8z M27.3,27h1.3v-9.3h-1.3V27z"/>
	</g>
	<g>
		<rect x="30.9" y="14.7" class="st0" width="2.1" height="12.5"/>
		<path class="st0" d="M33.4,27.6h-2.8V14.4h2.8V27.6z M31.3,26.8h1.3V15.1h-1.3C31.3,15.1,31.3,26.8,31.3,26.8z"/>
	</g>
</g>
</svg>
