<?xml version="1.0" encoding="utf-8"?>
<!-- Generator: Adobe Illustrator 25.0.1, SVG Export Plug-In . SVG Version: 6.00 Build 0)  -->
<svg version="1.1" id="Layer_1" xmlns="http://www.w3.org/2000/svg" xmlns:xlink="http://www.w3.org/1999/xlink" x="0px" y="0px"
	 viewBox="0 0 57.41 49.07" style="enable-background:new 0 0 57.41 49.07;" xml:space="preserve">
<style type="text/css">
	.st0{fill:url(#SVGID_1_);}
	.st1{fill:url(#SVGID_2_);}
	.st2{fill:url(#SVGID_3_);}
	.st3{fill:url(#SVGID_4_);}
	.st4{fill:url(#SVGID_5_);}
	.st5{fill:url(#SVGID_6_);}
	.st6{fill:url(#SVGID_7_);}
	.st7{fill:url(#SVGID_8_);}
	.st8{fill:url(#SVGID_9_);}
	.st9{fill:url(#SVGID_10_);}
	.st10{fill:url(#SVGID_11_);}
	.st11{fill:url(#SVGID_12_);}
	.st12{fill:url(#SVGID_13_);}
	.st13{fill:url(#SVGID_14_);}
	.st14{fill:url(#SVGID_15_);}
	.st15{fill:url(#SVGID_16_);}
	.st16{fill:url(#SVGID_17_);}
	.st17{fill:url(#SVGID_18_);}
</style>
<g>
	<linearGradient id="SVGID_1_" gradientUnits="userSpaceOnUse" x1="55.9828" y1="22.462" x2="0.8915" y2="22.462">
		<stop  offset="0" style="stop-color:#3AC0F0"/>
		<stop  offset="0.1882" style="stop-color:#38B3E7"/>
		<stop  offset="0.5387" style="stop-color:#3490CE"/>
		<stop  offset="1" style="stop-color:#2E59A8"/>
	</linearGradient>
	<path class="st0" d="M20.71,29.3c-7.97,0-13.97-2.94-13.97-6.84s6.01-6.84,13.97-6.84c7.97,0,13.98,2.94,13.98,6.84
		S28.67,29.3,20.71,29.3z M20.71,18.37c-6.85,0-11.22,2.42-11.22,4.09s4.37,4.09,11.22,4.09s11.23-2.42,11.23-4.09
		S27.56,18.37,20.71,18.37z"/>
	<linearGradient id="SVGID_2_" gradientUnits="userSpaceOnUse" x1="55.9828" y1="28.9007" x2="0.8915" y2="28.9007">
		<stop  offset="0" style="stop-color:#3AC0F0"/>
		<stop  offset="0.1882" style="stop-color:#38B3E7"/>
		<stop  offset="0.5387" style="stop-color:#3490CE"/>
		<stop  offset="1" style="stop-color:#2E59A8"/>
	</linearGradient>
	<path class="st1" d="M20.71,34.01c-7.97,0-13.97-2.94-13.97-6.84c0-0.85,0.29-2.12,1.69-3.38l1.84,2.04
		c-0.36,0.32-0.78,0.82-0.78,1.34c0,1.67,4.37,4.09,11.22,4.09s11.23-2.42,11.23-4.09c0-0.53-0.43-1.02-0.78-1.34l1.84-2.04
		c1.4,1.26,1.69,2.53,1.69,3.38C34.68,31.07,28.67,34.01,20.71,34.01z"/>
	<linearGradient id="SVGID_3_" gradientUnits="userSpaceOnUse" x1="55.9828" y1="33.5071" x2="0.8915" y2="33.5071">
		<stop  offset="0" style="stop-color:#3AC0F0"/>
		<stop  offset="0.1882" style="stop-color:#38B3E7"/>
		<stop  offset="0.5387" style="stop-color:#3490CE"/>
		<stop  offset="1" style="stop-color:#2E59A8"/>
	</linearGradient>
	<path class="st2" d="M20.71,38.62c-7.97,0-13.97-2.94-13.97-6.84c0-0.85,0.29-2.12,1.69-3.38l1.84,2.04
		c-0.36,0.32-0.78,0.82-0.78,1.34c0,1.67,4.37,4.09,11.22,4.09s11.23-2.42,11.23-4.09c0-0.53-0.43-1.02-0.78-1.34l1.84-2.04
		c1.4,1.26,1.69,2.54,1.69,3.38C34.68,35.68,28.67,38.62,20.71,38.62z"/>
	<linearGradient id="SVGID_4_" gradientUnits="userSpaceOnUse" x1="55.9828" y1="38.0379" x2="0.8915" y2="38.0379">
		<stop  offset="0" style="stop-color:#3AC0F0"/>
		<stop  offset="0.1882" style="stop-color:#38B3E7"/>
		<stop  offset="0.5387" style="stop-color:#3490CE"/>
		<stop  offset="1" style="stop-color:#2E59A8"/>
	</linearGradient>
	<path class="st3" d="M20.71,43.15c-7.97,0-13.97-2.94-13.97-6.84c0-0.85,0.29-2.12,1.69-3.38l1.84,2.04
		c-0.36,0.32-0.78,0.82-0.78,1.34c0,1.67,4.37,4.09,11.22,4.09s11.23-2.42,11.23-4.09c0-0.53-0.43-1.02-0.78-1.34l1.84-2.04
		c1.4,1.26,1.69,2.53,1.69,3.38C34.68,40.21,28.67,43.15,20.71,43.15z"/>
	<linearGradient id="SVGID_5_" gradientUnits="userSpaceOnUse" x1="55.9828" y1="42.4453" x2="0.8915" y2="42.4453">
		<stop  offset="0" style="stop-color:#3AC0F0"/>
		<stop  offset="0.1882" style="stop-color:#38B3E7"/>
		<stop  offset="0.5387" style="stop-color:#3490CE"/>
		<stop  offset="1" style="stop-color:#2E59A8"/>
	</linearGradient>
	<path class="st4" d="M20.71,47.56c-7.97,0-13.97-2.94-13.97-6.84c0-0.85,0.29-2.12,1.69-3.38l1.84,2.04
		c-0.36,0.32-0.78,0.82-0.78,1.34c0,1.67,4.37,4.09,11.22,4.09s11.23-2.42,11.23-4.09c0-0.53-0.43-1.02-0.78-1.34l1.84-2.04
		c1.4,1.26,1.69,2.54,1.69,3.38C34.68,44.62,28.67,47.56,20.71,47.56z"/>
	<linearGradient id="SVGID_6_" gradientUnits="userSpaceOnUse" x1="55.9828" y1="31.5896" x2="0.8915" y2="31.5896">
		<stop  offset="0" style="stop-color:#3AC0F0"/>
		<stop  offset="0.1882" style="stop-color:#38B3E7"/>
		<stop  offset="0.5387" style="stop-color:#3490CE"/>
		<stop  offset="1" style="stop-color:#2E59A8"/>
	</linearGradient>
	<rect x="6.73" y="22.46" class="st5" width="2.75" height="18.26"/>
	<linearGradient id="SVGID_7_" gradientUnits="userSpaceOnUse" x1="55.9828" y1="12.326" x2="0.8915" y2="12.326">
		<stop  offset="0" style="stop-color:#3AC0F0"/>
		<stop  offset="0.1882" style="stop-color:#38B3E7"/>
		<stop  offset="0.5387" style="stop-color:#3490CE"/>
		<stop  offset="1" style="stop-color:#2E59A8"/>
	</linearGradient>
	<rect x="22.73" y="7.76" class="st6" width="2.75" height="9.13"/>
	<linearGradient id="SVGID_8_" gradientUnits="userSpaceOnUse" x1="55.9828" y1="31.5896" x2="0.8915" y2="31.5896">
		<stop  offset="0" style="stop-color:#3AC0F0"/>
		<stop  offset="0.1882" style="stop-color:#38B3E7"/>
		<stop  offset="0.5387" style="stop-color:#3490CE"/>
		<stop  offset="1" style="stop-color:#2E59A8"/>
	</linearGradient>
	<rect x="31.93" y="22.46" class="st7" width="2.75" height="18.26"/>
	<linearGradient id="SVGID_9_" gradientUnits="userSpaceOnUse" x1="55.9828" y1="7.7618" x2="0.8915" y2="7.7618">
		<stop  offset="0" style="stop-color:#3AC0F0"/>
		<stop  offset="0.1882" style="stop-color:#38B3E7"/>
		<stop  offset="0.5387" style="stop-color:#3490CE"/>
		<stop  offset="1" style="stop-color:#2E59A8"/>
	</linearGradient>
	<path class="st8" d="M36.7,14.6c-7.97,0-13.98-2.94-13.98-6.84s6.01-6.84,13.98-6.84s13.98,2.94,13.98,6.84S44.67,14.6,36.7,14.6z
		 M36.7,3.67c-6.85,0-11.23,2.42-11.23,4.09s4.37,4.09,11.23,4.09s11.23-2.42,11.23-4.09S43.55,3.67,36.7,3.67z"/>
	<linearGradient id="SVGID_10_" gradientUnits="userSpaceOnUse" x1="55.9828" y1="14.2005" x2="0.8915" y2="14.2005">
		<stop  offset="0" style="stop-color:#3AC0F0"/>
		<stop  offset="0.1882" style="stop-color:#38B3E7"/>
		<stop  offset="0.5387" style="stop-color:#3490CE"/>
		<stop  offset="1" style="stop-color:#2E59A8"/>
	</linearGradient>
	<path class="st9" d="M36.7,19.31c-7.97,0-13.98-2.94-13.98-6.84c0-0.85,0.29-2.12,1.69-3.38l1.84,2.04
		c-0.36,0.32-0.78,0.82-0.78,1.34c0,1.67,4.37,4.09,11.23,4.09s11.23-2.42,11.23-4.09c0-0.53-0.43-1.02-0.78-1.34l1.84-2.04
		c1.4,1.26,1.69,2.53,1.69,3.38C50.68,16.37,44.67,19.31,36.7,19.31z"/>
	<linearGradient id="SVGID_11_" gradientUnits="userSpaceOnUse" x1="55.9828" y1="16.219" x2="0.8915" y2="16.219">
		<stop  offset="0" style="stop-color:#3AC0F0"/>
		<stop  offset="0.1882" style="stop-color:#38B3E7"/>
		<stop  offset="0.5387" style="stop-color:#3490CE"/>
		<stop  offset="1" style="stop-color:#2E59A8"/>
	</linearGradient>
	<path class="st10" d="M28.53,17.74l-2.62-0.84c0.25-0.79,0.76-1.53,1.5-2.2l1.84,2.04C28.89,17.08,28.63,17.42,28.53,17.74z"/>
	<linearGradient id="SVGID_12_" gradientUnits="userSpaceOnUse" x1="55.9828" y1="18.8074" x2="0.8915" y2="18.8074">
		<stop  offset="0" style="stop-color:#3AC0F0"/>
		<stop  offset="0.1882" style="stop-color:#38B3E7"/>
		<stop  offset="0.5387" style="stop-color:#3490CE"/>
		<stop  offset="1" style="stop-color:#2E59A8"/>
	</linearGradient>
	<path class="st11" d="M36.7,23.92c-1.2,0-2.39-0.07-3.54-0.21l0.33-2.73c1.04,0.13,2.12,0.19,3.22,0.19
		c6.85,0,11.23-2.42,11.23-4.09c0-0.53-0.43-1.02-0.78-1.34l1.84-2.04c1.4,1.26,1.69,2.53,1.69,3.38
		C50.68,20.98,44.67,23.92,36.7,23.92z"/>
	<linearGradient id="SVGID_13_" gradientUnits="userSpaceOnUse" x1="55.9828" y1="23.3377" x2="0.8915" y2="23.3377">
		<stop  offset="0" style="stop-color:#3AC0F0"/>
		<stop  offset="0.1882" style="stop-color:#38B3E7"/>
		<stop  offset="0.5387" style="stop-color:#3490CE"/>
		<stop  offset="1" style="stop-color:#2E59A8"/>
	</linearGradient>
	<path class="st12" d="M36.7,28.45c-1.2,0-2.39-0.07-3.54-0.21l0.33-2.73c1.04,0.13,2.12,0.19,3.22,0.19
		c6.85,0,11.23-2.42,11.23-4.09c0-0.53-0.43-1.02-0.78-1.34l1.84-2.04c1.4,1.26,1.69,2.54,1.69,3.38
		C50.68,25.51,44.67,28.45,36.7,28.45z"/>
	<linearGradient id="SVGID_14_" gradientUnits="userSpaceOnUse" x1="55.9828" y1="27.7454" x2="0.8915" y2="27.7454">
		<stop  offset="0" style="stop-color:#3AC0F0"/>
		<stop  offset="0.1882" style="stop-color:#38B3E7"/>
		<stop  offset="0.5387" style="stop-color:#3490CE"/>
		<stop  offset="1" style="stop-color:#2E59A8"/>
	</linearGradient>
	<path class="st13" d="M36.7,32.86c-1.21,0-2.41-0.07-3.56-0.21l0.33-2.73c1.04,0.13,2.13,0.19,3.23,0.19
		c6.85,0,11.23-2.42,11.23-4.09c0-0.53-0.43-1.02-0.78-1.34l1.84-2.04c1.4,1.26,1.69,2.53,1.69,3.38
		C50.68,29.92,44.67,32.86,36.7,32.86z"/>
	<linearGradient id="SVGID_15_" gradientUnits="userSpaceOnUse" x1="55.9828" y1="32.158" x2="0.8915" y2="32.158">
		<stop  offset="0" style="stop-color:#3AC0F0"/>
		<stop  offset="0.1882" style="stop-color:#38B3E7"/>
		<stop  offset="0.5387" style="stop-color:#3490CE"/>
		<stop  offset="1" style="stop-color:#2E59A8"/>
	</linearGradient>
	<path class="st14" d="M36.7,37.27c-1.2,0-2.39-0.07-3.54-0.21l0.33-2.73c1.04,0.13,2.12,0.19,3.22,0.19
		c6.85,0,11.23-2.42,11.23-4.09c0-0.53-0.43-1.02-0.78-1.34l1.84-2.04c1.4,1.26,1.69,2.54,1.69,3.38
		C50.68,34.33,44.67,37.27,36.7,37.27z"/>
	<linearGradient id="SVGID_16_" gradientUnits="userSpaceOnUse" x1="55.9828" y1="36.4197" x2="0.8915" y2="36.4197">
		<stop  offset="0" style="stop-color:#3AC0F0"/>
		<stop  offset="0.1882" style="stop-color:#38B3E7"/>
		<stop  offset="0.5387" style="stop-color:#3490CE"/>
		<stop  offset="1" style="stop-color:#2E59A8"/>
	</linearGradient>
	<path class="st15" d="M36.7,41.53c-1.2,0-2.38-0.07-3.52-0.21l0.33-2.73c1.03,0.12,2.11,0.19,3.19,0.19
		c6.85,0,11.23-2.42,11.23-4.09c0-0.53-0.43-1.02-0.78-1.34l1.84-2.04c1.4,1.26,1.69,2.54,1.69,3.38
		C50.68,38.59,44.67,41.53,36.7,41.53z"/>
	<linearGradient id="SVGID_17_" gradientUnits="userSpaceOnUse" x1="55.9828" y1="40.68" x2="0.8915" y2="40.68">
		<stop  offset="0" style="stop-color:#3AC0F0"/>
		<stop  offset="0.1882" style="stop-color:#38B3E7"/>
		<stop  offset="0.5387" style="stop-color:#3490CE"/>
		<stop  offset="1" style="stop-color:#2E59A8"/>
	</linearGradient>
	<path class="st16" d="M36.7,45.79c-2.08,0-4.08-0.21-5.94-0.61l0.58-2.69c1.67,0.36,3.47,0.55,5.36,0.55
		c6.85,0,11.23-2.42,11.23-4.09c0-0.53-0.43-1.02-0.78-1.34l1.84-2.04c1.4,1.26,1.69,2.53,1.69,3.38
		C50.68,42.85,44.67,45.79,36.7,45.79z"/>
	<linearGradient id="SVGID_18_" gradientUnits="userSpaceOnUse" x1="55.9828" y1="23.4273" x2="0.8915" y2="23.4273">
		<stop  offset="0" style="stop-color:#3AC0F0"/>
		<stop  offset="0.1882" style="stop-color:#38B3E7"/>
		<stop  offset="0.5387" style="stop-color:#3490CE"/>
		<stop  offset="1" style="stop-color:#2E59A8"/>
	</linearGradient>
	<rect x="47.93" y="7.76" class="st17" width="2.75" height="31.33"/>
</g>
</svg>
