<?xml version="1.0" encoding="utf-8"?>
<!-- Generator: Adobe Illustrator 25.0.1, SVG Export Plug-In . SVG Version: 6.00 Build 0)  -->
<svg version="1.1" id="Layer_1" xmlns="http://www.w3.org/2000/svg" xmlns:xlink="http://www.w3.org/1999/xlink" x="0px" y="0px"
	 viewBox="0 0 57.41 49.07" style="enable-background:new 0 0 57.41 49.07;" xml:space="preserve">
<style type="text/css">
	.st0{fill:url(#SVGID_1_);}
	.st1{fill:url(#SVGID_2_);}
	.st2{fill:url(#SVGID_3_);}
	.st3{fill:url(#SVGID_4_);}
	.st4{fill:url(#SVGID_5_);}
	.st5{fill:url(#SVGID_6_);}
	.st6{fill:url(#SVGID_7_);}
	.st7{fill:url(#SVGID_8_);}
	.st8{fill:url(#SVGID_9_);}
	.st9{fill:url(#SVGID_10_);}
	.st10{fill:url(#SVGID_11_);}
	.st11{fill:url(#SVGID_12_);}
</style>
<g>
	<linearGradient id="SVGID_1_" gradientUnits="userSpaceOnUse" x1="53.7695" y1="23.7517" x2="3.05" y2="23.7517">
		<stop  offset="0" style="stop-color:#3AC0F0"/>
		<stop  offset="0.1882" style="stop-color:#38B3E7"/>
		<stop  offset="0.5387" style="stop-color:#3490CE"/>
		<stop  offset="1" style="stop-color:#2E59A8"/>
	</linearGradient>
	<polygon class="st0" points="42.65,41.59 37.43,41.59 37.43,38.7 39.76,38.7 39.76,8.8 18.87,8.8 18.87,10.82 15.99,10.82 
		15.99,5.91 42.65,5.91 	"/>
	<linearGradient id="SVGID_2_" gradientUnits="userSpaceOnUse" x1="53.7695" y1="19.3249" x2="3.05" y2="19.3249">
		<stop  offset="0" style="stop-color:#3AC0F0"/>
		<stop  offset="0.1882" style="stop-color:#38B3E7"/>
		<stop  offset="0.5387" style="stop-color:#3490CE"/>
		<stop  offset="1" style="stop-color:#2E59A8"/>
	</linearGradient>
	<polygon class="st1" points="47.82,37.29 41.65,37.29 41.65,34.4 44.93,34.4 44.93,4.25 24.61,4.25 24.61,7.03 21.73,7.03 
		21.73,1.36 47.82,1.36 	"/>
	<linearGradient id="SVGID_3_" gradientUnits="userSpaceOnUse" x1="53.7695" y1="28.648" x2="3.05" y2="28.648">
		<stop  offset="0" style="stop-color:#3AC0F0"/>
		<stop  offset="0.1882" style="stop-color:#38B3E7"/>
		<stop  offset="0.5387" style="stop-color:#3490CE"/>
		<stop  offset="1" style="stop-color:#2E59A8"/>
	</linearGradient>
	<path class="st2" d="M37.85,46.86H9.99V10.43h27.86V46.86z M12.88,43.98h22.08V13.32H12.88V43.98z"/>
	<linearGradient id="SVGID_4_" gradientUnits="userSpaceOnUse" x1="53.7695" y1="27.904" x2="3.05" y2="27.904">
		<stop  offset="0" style="stop-color:#3AC0F0"/>
		<stop  offset="0.1882" style="stop-color:#38B3E7"/>
		<stop  offset="0.5387" style="stop-color:#3490CE"/>
		<stop  offset="1" style="stop-color:#2E59A8"/>
	</linearGradient>
	<polygon class="st3" points="25.07,33.2 20.02,26.57 16.26,29.08 15.68,28.21 20.26,25.15 25.05,31.44 31.45,22.61 32.3,23.22 	"/>
	<g>
		<linearGradient id="SVGID_5_" gradientUnits="userSpaceOnUse" x1="53.7695" y1="28.6479" x2="3.05" y2="28.6479">
			<stop  offset="0" style="stop-color:#3AC0F0"/>
			<stop  offset="0.1882" style="stop-color:#38B3E7"/>
			<stop  offset="0.5387" style="stop-color:#3490CE"/>
			<stop  offset="1" style="stop-color:#2E59A8"/>
		</linearGradient>
		<circle class="st4" cx="15.67" cy="28.65" r="1.06"/>
		<linearGradient id="SVGID_6_" gradientUnits="userSpaceOnUse" x1="53.7695" y1="28.648" x2="3.05" y2="28.648">
			<stop  offset="0" style="stop-color:#3AC0F0"/>
			<stop  offset="0.1882" style="stop-color:#38B3E7"/>
			<stop  offset="0.5387" style="stop-color:#3490CE"/>
			<stop  offset="1" style="stop-color:#2E59A8"/>
		</linearGradient>
		<path class="st5" d="M15.67,30.23c-0.87,0-1.59-0.71-1.59-1.59c0-0.87,0.71-1.59,1.59-1.59c0.87,0,1.59,0.71,1.59,1.59
			C17.26,29.52,16.55,30.23,15.67,30.23z M15.67,28.11c-0.3,0-0.54,0.24-0.54,0.54s0.24,0.54,0.54,0.54c0.3,0,0.54-0.24,0.54-0.54
			S15.97,28.11,15.67,28.11z"/>
	</g>
	<g>
		<linearGradient id="SVGID_7_" gradientUnits="userSpaceOnUse" x1="53.7695" y1="25.7889" x2="3.05" y2="25.7889">
			<stop  offset="0" style="stop-color:#3AC0F0"/>
			<stop  offset="0.1882" style="stop-color:#38B3E7"/>
			<stop  offset="0.5387" style="stop-color:#3490CE"/>
			<stop  offset="1" style="stop-color:#2E59A8"/>
		</linearGradient>
		<circle class="st6" cx="19.95" cy="25.79" r="1.06"/>
		<linearGradient id="SVGID_8_" gradientUnits="userSpaceOnUse" x1="53.7695" y1="25.7888" x2="3.05" y2="25.7888">
			<stop  offset="0" style="stop-color:#3AC0F0"/>
			<stop  offset="0.1882" style="stop-color:#38B3E7"/>
			<stop  offset="0.5387" style="stop-color:#3490CE"/>
			<stop  offset="1" style="stop-color:#2E59A8"/>
		</linearGradient>
		<path class="st7" d="M19.95,27.37c-0.87,0-1.59-0.71-1.59-1.59c0-0.87,0.71-1.59,1.59-1.59c0.87,0,1.59,0.71,1.59,1.59
			C21.53,26.66,20.82,27.37,19.95,27.37z M19.95,25.25c-0.3,0-0.54,0.24-0.54,0.54c0,0.3,0.24,0.54,0.54,0.54
			c0.3,0,0.54-0.24,0.54-0.54C20.48,25.49,20.24,25.25,19.95,25.25z"/>
	</g>
	<g>
		<linearGradient id="SVGID_9_" gradientUnits="userSpaceOnUse" x1="53.7695" y1="32.029" x2="3.05" y2="32.029">
			<stop  offset="0" style="stop-color:#3AC0F0"/>
			<stop  offset="0.1882" style="stop-color:#38B3E7"/>
			<stop  offset="0.5387" style="stop-color:#3490CE"/>
			<stop  offset="1" style="stop-color:#2E59A8"/>
		</linearGradient>
		<circle class="st8" cx="24.98" cy="32.03" r="1.06"/>
		<linearGradient id="SVGID_10_" gradientUnits="userSpaceOnUse" x1="53.7695" y1="32.0289" x2="3.05" y2="32.0289">
			<stop  offset="0" style="stop-color:#3AC0F0"/>
			<stop  offset="0.1882" style="stop-color:#38B3E7"/>
			<stop  offset="0.5387" style="stop-color:#3490CE"/>
			<stop  offset="1" style="stop-color:#2E59A8"/>
		</linearGradient>
		<path class="st9" d="M24.98,33.61c-0.87,0-1.59-0.71-1.59-1.59c0-0.87,0.71-1.59,1.59-1.59c0.87,0,1.59,0.71,1.59,1.59
			C26.57,32.9,25.86,33.61,24.98,33.61z M24.98,31.49c-0.3,0-0.54,0.24-0.54,0.54c0,0.3,0.24,0.54,0.54,0.54
			c0.3,0,0.54-0.24,0.54-0.54C25.52,31.73,25.28,31.49,24.98,31.49z"/>
	</g>
	<g>
		<linearGradient id="SVGID_11_" gradientUnits="userSpaceOnUse" x1="53.7695" y1="22.8276" x2="3.05" y2="22.8276">
			<stop  offset="0" style="stop-color:#3AC0F0"/>
			<stop  offset="0.1882" style="stop-color:#38B3E7"/>
			<stop  offset="0.5387" style="stop-color:#3490CE"/>
			<stop  offset="1" style="stop-color:#2E59A8"/>
		</linearGradient>
		<circle class="st10" cx="31.88" cy="22.83" r="1.06"/>
		<linearGradient id="SVGID_12_" gradientUnits="userSpaceOnUse" x1="53.7695" y1="22.8276" x2="3.05" y2="22.8276">
			<stop  offset="0" style="stop-color:#3AC0F0"/>
			<stop  offset="0.1882" style="stop-color:#38B3E7"/>
			<stop  offset="0.5387" style="stop-color:#3490CE"/>
			<stop  offset="1" style="stop-color:#2E59A8"/>
		</linearGradient>
		<path class="st11" d="M31.88,24.41c-0.87,0-1.59-0.71-1.59-1.59c0-0.87,0.71-1.59,1.59-1.59c0.87,0,1.59,0.71,1.59,1.59
			C33.46,23.7,32.75,24.41,31.88,24.41z M31.88,22.29c-0.3,0-0.54,0.24-0.54,0.54c0,0.3,0.24,0.54,0.54,0.54
			c0.3,0,0.54-0.24,0.54-0.54C32.41,22.53,32.17,22.29,31.88,22.29z"/>
	</g>
</g>
</svg>
