<?xml version="1.0" encoding="utf-8"?>
<!-- Generator: Adobe Illustrator 25.0.1, SVG Export Plug-In . SVG Version: 6.00 Build 0)  -->
<svg version="1.1" id="Layer_1" xmlns="http://www.w3.org/2000/svg" xmlns:xlink="http://www.w3.org/1999/xlink" x="0px" y="0px"
	 viewBox="0 0 57.4 49.1" style="enable-background:new 0 0 57.4 49.1;" xml:space="preserve">
<style type="text/css">
	.st0{fill:#FFFFFF;}
</style>
<g>
	<path class="st0" d="M35,32.8H22.3l-4-7.4c-2-3.6-3.9-11.7,2.8-17.1c4.7-3.4,10.5-3.1,13.9-1c6.1,3.8,7.5,9.9,4.1,17.6
		c0,0-1.4,2.9-2.1,4.2c-0.6,1.2-1.5,2.9-1.5,2.9L35,32.8z M24,30.1h9.4c0.3-0.6,0.8-1.5,1.1-2.1c0.7-1.4,2.1-4.2,2.1-4.2
		c2.9-6.4,1.9-11-3-14.1c-2.1-1.3-6.6-2.1-10.8,0.8c-6.6,5.3-2.2,13.3-2,13.6L24,30.1z"/>
	<path class="st0" d="M26.3,43.3c1.4,0,2.7,0,4.1,0c0.2,0,0.4,0,0.6,0c0.5,0,1-0.2,1.3-0.5c0.3-0.3,0.6-0.9,0.5-1.3
		c0-1-0.8-1.9-1.9-1.9c-1.4,0-2.7,0-4.1,0c-0.2,0-0.4,0-0.6,0c-0.5,0-1,0.2-1.3,0.5c-0.3,0.3-0.6,0.9-0.5,1.3
		C24.5,42.5,25.2,43.3,26.3,43.3L26.3,43.3z"/>
	<path class="st0" d="M24.6,38.3c2.3,0,4.6,0,6.9,0c0.3,0,0.6,0,1,0c1,0,1.9-0.9,1.9-1.9c0-1-0.8-1.9-1.9-1.9c-2.3,0-4.6,0-6.9,0
		c-0.3,0-0.6,0-1,0c-1,0-1.9,0.9-1.9,1.9C22.8,37.5,23.6,38.3,24.6,38.3L24.6,38.3z"/>
</g>
</svg>
