<?xml version="1.0" encoding="utf-8"?>
<!-- Generator: Adobe Illustrator 25.0.1, SVG Export Plug-In . SVG Version: 6.00 Build 0)  -->
<svg version="1.1" id="Layer_1" xmlns="http://www.w3.org/2000/svg" xmlns:xlink="http://www.w3.org/1999/xlink" x="0px" y="0px"
	 viewBox="0 0 57.41 49.07" style="enable-background:new 0 0 57.41 49.07;" xml:space="preserve">
<style type="text/css">
	.st0{fill:url(#SVGID_1_);}
	.st1{fill:url(#SVGID_2_);}
	.st2{fill:url(#SVGID_3_);}
	.st3{fill:url(#SVGID_4_);}
</style>
<g>
	<linearGradient id="SVGID_1_" gradientUnits="userSpaceOnUse" x1="44.2075" y1="19.2706" x2="13.6998" y2="19.2706">
		<stop  offset="0" style="stop-color:#3AC0F0"/>
		<stop  offset="0.1493" style="stop-color:#39BDEE"/>
		<stop  offset="0.2993" style="stop-color:#38B5E9"/>
		<stop  offset="0.4498" style="stop-color:#36A9E0"/>
		<stop  offset="0.6006" style="stop-color:#3497D3"/>
		<stop  offset="0.7517" style="stop-color:#3282C4"/>
		<stop  offset="0.901" style="stop-color:#2F6AB4"/>
		<stop  offset="1" style="stop-color:#2E59A8"/>
	</linearGradient>
	<path class="st0" d="M35.03,32.82H22.33l-3.96-7.44c-1.98-3.56-3.95-11.7,2.77-17.11c4.73-3.41,10.54-3.06,13.87-0.98
		c6.12,3.82,7.53,9.92,4.07,17.62c-0.02,0.04-1.41,2.87-2.11,4.25c-0.62,1.23-1.55,2.94-1.55,2.94L35.03,32.82z M23.98,30.07h9.41
		c0.32-0.59,0.78-1.45,1.13-2.15c0.7-1.38,2.07-4.18,2.07-4.18c2.87-6.41,1.88-11.04-3.04-14.12c-2.06-1.29-6.62-2.13-10.75,0.84
		c-6.56,5.28-2.21,13.26-2.02,13.6L23.98,30.07z"/>
	<linearGradient id="SVGID_2_" gradientUnits="userSpaceOnUse" x1="44.2075" y1="36.4626" x2="13.6998" y2="36.4626">
		<stop  offset="0" style="stop-color:#3AC0F0"/>
		<stop  offset="0.1493" style="stop-color:#39BDEE"/>
		<stop  offset="0.2993" style="stop-color:#38B5E9"/>
		<stop  offset="0.4498" style="stop-color:#36A9E0"/>
		<stop  offset="0.6006" style="stop-color:#3497D3"/>
		<stop  offset="0.7517" style="stop-color:#3282C4"/>
		<stop  offset="0.901" style="stop-color:#2F6AB4"/>
		<stop  offset="1" style="stop-color:#2E59A8"/>
	</linearGradient>
	<path class="st1" d="M24.65,38.34c2.31,0,4.62,0,6.93,0c0.33,0,0.65,0,0.98,0c0.98,0,1.92-0.86,1.88-1.88
		c-0.05-1.02-0.82-1.88-1.88-1.88c-2.31,0-4.62,0-6.93,0c-0.33,0-0.65,0-0.98,0c-0.98,0-1.92,0.86-1.88,1.88
		C22.82,37.48,23.6,38.34,24.65,38.34L24.65,38.34z"/>
	<linearGradient id="SVGID_3_" gradientUnits="userSpaceOnUse" x1="44.2075" y1="36.4626" x2="13.6998" y2="36.4626">
		<stop  offset="0" style="stop-color:#3AC0F0"/>
		<stop  offset="0.1493" style="stop-color:#39BDEE"/>
		<stop  offset="0.2993" style="stop-color:#38B5E9"/>
		<stop  offset="0.4498" style="stop-color:#36A9E0"/>
		<stop  offset="0.6006" style="stop-color:#3497D3"/>
		<stop  offset="0.7517" style="stop-color:#3282C4"/>
		<stop  offset="0.901" style="stop-color:#2F6AB4"/>
		<stop  offset="1" style="stop-color:#2E59A8"/>
	</linearGradient>
	<path class="st2" d="M24.65,38.34c2.31,0,4.62,0,6.93,0c0.33,0,0.65,0,0.98,0c0.98,0,1.92-0.86,1.88-1.88
		c-0.05-1.02-0.82-1.88-1.88-1.88c-2.31,0-4.62,0-6.93,0c-0.33,0-0.65,0-0.98,0c-0.98,0-1.92,0.86-1.88,1.88
		C22.82,37.48,23.6,38.34,24.65,38.34L24.65,38.34z"/>
	<linearGradient id="SVGID_4_" gradientUnits="userSpaceOnUse" x1="44.2075" y1="41.4788" x2="13.6998" y2="41.4788">
		<stop  offset="0" style="stop-color:#3AC0F0"/>
		<stop  offset="0.1493" style="stop-color:#39BDEE"/>
		<stop  offset="0.2993" style="stop-color:#38B5E9"/>
		<stop  offset="0.4498" style="stop-color:#36A9E0"/>
		<stop  offset="0.6006" style="stop-color:#3497D3"/>
		<stop  offset="0.7517" style="stop-color:#3282C4"/>
		<stop  offset="0.901" style="stop-color:#2F6AB4"/>
		<stop  offset="1" style="stop-color:#2E59A8"/>
	</linearGradient>
	<path class="st3" d="M26.28,43.35c1.36,0,2.71,0,4.07,0c0.19,0,0.38,0,0.58,0c0.48,0,0.99-0.21,1.33-0.55
		c0.33-0.33,0.57-0.86,0.55-1.33c-0.05-1.02-0.82-1.88-1.88-1.88c-1.36,0-2.71,0-4.07,0c-0.19,0-0.38,0-0.58,0
		c-0.48,0-0.99,0.21-1.33,0.55c-0.33,0.33-0.57,0.86-0.55,1.33C24.45,42.49,25.23,43.35,26.28,43.35L26.28,43.35z"/>
</g>
</svg>
