<?xml version="1.0" encoding="utf-8"?>
<!-- Generator: Adobe Illustrator 25.0.1, SVG Export Plug-In . SVG Version: 6.00 Build 0)  -->
<svg version="1.1" id="Layer_1" xmlns="http://www.w3.org/2000/svg" xmlns:xlink="http://www.w3.org/1999/xlink" x="0px" y="0px"
	 viewBox="0 0 57.41 53.02" style="enable-background:new 0 0 57.41 53.02;" xml:space="preserve">
<style type="text/css">
	.st0{fill:url(#SVGID_1_);}
	.st1{fill:url(#SVGID_2_);}
</style>
<g>
	<linearGradient id="SVGID_1_" gradientUnits="userSpaceOnUse" x1="44.3924" y1="40.1625" x2="6.1018" y2="40.1625">
		<stop  offset="0" style="stop-color:#3AC0F0"/>
		<stop  offset="0.1882" style="stop-color:#38B3E7"/>
		<stop  offset="0.5387" style="stop-color:#3490CE"/>
		<stop  offset="1" style="stop-color:#2E59A8"/>
	</linearGradient>
	<path class="st0" d="M38.07,52.07h-21.4c-0.76,0-1.38-0.62-1.38-1.38V29.63c0-0.76,0.62-1.38,1.38-1.38h8.86
		c0.56,0,1.07,0.34,1.28,0.87c0.21,0.52,0.08,1.12-0.33,1.51c0,0,0,0,0,0c0,0-0.34,0.42-0.28,1.27c0.07,0.96,0.67,1.2,0.93,1.26
		c0.02,0,0.09,0.02,0.11,0.03c0,0,0.7,0.16,1.37-0.33c0.01-0.01,1.08-1.09,0.14-2.43C28.44,30,28.4,29.45,28.64,29
		c0.24-0.46,0.71-0.74,1.22-0.74h8.21c0.76,0,1.38,0.62,1.38,1.38v6.34c0.36-0.07,0.74-0.11,1.14-0.09
		c2.36,0.15,4.28,2.07,4.28,4.28c0,2.47-2.01,4.64-4.32,4.68c-0.18,0.01-0.59,0.02-1.11-0.08v5.93
		C39.45,51.45,38.83,52.07,38.07,52.07z M18.04,49.32H36.7v-6.84c0-0.58,0.36-1.09,0.9-1.29c0.54-0.2,1.15-0.04,1.52,0.4
		c0.48,0.56,1.22,0.51,1.26,0.51c0.03,0,0.09-0.01,0.12-0.01c0.82,0,1.63-0.96,1.63-1.93c0-0.67-0.7-1.47-1.71-1.54
		c-0.58-0.04-1.3,0.39-1.5,0.54c-0.42,0.32-0.98,0.37-1.45,0.14C37,39.07,36.7,38.6,36.7,38.08v-7.07h-4.86
		c0.22,1.84-0.76,3.44-1.62,4.07c-1.59,1.17-3.24,0.88-3.66,0.78c-1.04-0.2-2.94-1.23-3.12-3.76c-0.03-0.4-0.01-0.76,0.03-1.09
		h-5.44V49.32z"/>
	<linearGradient id="SVGID_2_" gradientUnits="userSpaceOnUse" x1="44.3924" y1="15.0522" x2="6.1018" y2="15.0522">
		<stop  offset="0" style="stop-color:#3AC0F0"/>
		<stop  offset="0.1882" style="stop-color:#38B3E7"/>
		<stop  offset="0.5387" style="stop-color:#3490CE"/>
		<stop  offset="1" style="stop-color:#2E59A8"/>
	</linearGradient>
	<path class="st1" d="M39.49,29.4h-2.75v-6.97c-0.34,0.05-0.72,0.07-1.13,0.04c-2.57-0.18-3.6-2.11-3.81-3.16
		c-0.1-0.42-0.39-2.09,0.79-3.7c0.64-0.87,2.27-1.87,4.15-1.64v-5h-7.23c-0.53,0-1.01-0.3-1.24-0.77s-0.17-1.04,0.16-1.45
		c0.16-0.21,0.59-0.92,0.55-1.53c-0.07-1.04-0.89-1.77-1.59-1.77c-1,0-1.99,0.83-1.99,1.69c0,0.05,0,0.1-0.01,0.14
		c0,0.01-0.05,0.78,0.53,1.28c0.44,0.38,0.59,0.98,0.39,1.52c-0.2,0.54-0.71,0.9-1.29,0.9h-6.99V29.4h-2.75V7.6
		c0-0.76,0.62-1.38,1.38-1.38h6.07c-0.11-0.53-0.1-0.96-0.08-1.15c0.04-2.34,2.24-4.38,4.74-4.38c2.23,0,4.18,1.95,4.33,4.34
		c0.03,0.42-0.01,0.82-0.09,1.19h6.48c0.76,0,1.38,0.62,1.38,1.38v8.37c0,0.51-0.29,0.98-0.74,1.22c-0.45,0.24-1,0.2-1.42-0.09
		c-1.39-0.98-2.51,0.13-2.52,0.15c-0.5,0.68-0.34,1.4-0.34,1.41c0.01,0.05,0.02,0.09,0.03,0.14c0.05,0.24,0.3,0.86,1.3,0.93
		c0.89,0.07,1.33-0.31,1.35-0.33c0.39-0.41,0.97-0.52,1.49-0.32c0.52,0.21,0.85,0.73,0.85,1.3V29.4z"/>
</g>
</svg>
