<?xml version="1.0" encoding="utf-8"?>
<!-- Generator: Adobe Illustrator 25.0.1, SVG Export Plug-In . SVG Version: 6.00 Build 0)  -->
<svg version="1.1" id="Layer_1" xmlns="http://www.w3.org/2000/svg" xmlns:xlink="http://www.w3.org/1999/xlink" x="0px" y="0px"
	 viewBox="0 0 714 200" style="enable-background:new 0 0 714 200;" xml:space="preserve">
<style type="text/css">
	.st0{fill:#009AD7;}
</style>
<g>
	<polygon class="st0" points="156.4,180.8 195.6,180.8 195.6,76.4 156.4,76.4 	"/>
	<polygon class="st0" points="156.4,64.7 195.6,64.7 195.6,37.9 156.4,37.9 	"/>
	<polygon class="st0" points="251.3,37.9 251.3,180.8 212.2,180.8 212.2,37.9 	"/>
	<polygon class="st0" points="307,37.9 307,180.8 267.8,180.8 267.8,37.9 	"/>
	<polygon class="st0" points="704.8,79.3 678.1,180.8 662.2,180.8 635.9,102.6 609.7,180.8 593.8,180.8 566.9,79.3 584.8,79.3 
		603.7,157.9 629.2,79.3 643.5,79.3 669.7,157.9 687.5,79.3 	"/>
	<path class="st0" d="M61,11.5v106.6c0,17.3,6.2,26,18.7,26c5.3,0,9.8-1.8,13.5-5.4c3.7-3.6,5.6-8,5.6-13.1c0-5.3-1.7-9.8-5.2-13.4
		c-3.5-3.6-7.7-5.4-12.8-5.4c-3.6,0-7.7,1.6-12.3,4.7V57.7c5.7-0.5,10.1-0.8,13.1-0.8c18.4,0,34.1,6.6,47.2,19.8
		c13.1,13.2,19.6,29.1,19.6,47.8c0,19-6.6,35.1-20,48.1c-13.3,13-29.7,19.6-49.1,19.6c-9.7,0-19.2-2.1-28.5-6.4
		c-9.3-4.3-16.9-10-22.9-17.2c-10.4-12.5-15.7-28.8-15.7-48.7V11.5H61L61,11.5z"/>
	<path class="st0" d="M542.7,118.7c-0.1-9-2.3-15.9-6.8-20.8c-4.5-4.9-11.3-7.4-20.5-7.4c-9.2,0-16.6,2.7-22.1,8.1
		c-5.5,5.4-8.6,12.1-9.3,20.1L542.7,118.7L542.7,118.7z M559.5,131.8H484c0,6.2,1,11.7,2.8,16.3c1.9,4.6,4.5,8.4,7.8,11.4
		c3.2,2.9,7,5.1,11.3,6.5s9.2,2.2,14.5,2.2c7,0,14-1.4,21-4.1c7.1-2.8,12.1-5.5,15.1-8.1h0.9v18.6c-5.8,2.4-11.7,4.5-17.8,6.1
		c-6.1,1.6-12.4,2.5-19.1,2.5c-17,0-30.3-4.6-39.8-13.7c-9.5-9.1-14.3-22.1-14.3-38.9c0-16.6,4.6-29.8,13.7-39.5
		c9.1-9.8,21.2-14.6,36.1-14.6c13.8,0,24.5,4,32,12s11.2,19.4,11.2,34.1L559.5,131.8L559.5,131.8z"/>
	<path class="st0" d="M452.7,181.3h-16.1V79.8h16.1L452.7,181.3L452.7,181.3z M453.7,62.8h-18.2V45.1h18.2V62.8L453.7,62.8z"/>
	<polygon class="st0" points="419.9,79.3 379.2,180.8 362.2,180.8 321.7,79.3 340.1,79.3 371.3,160.1 402.1,79.3 	"/>
</g>
</svg>
