<?xml version="1.0" encoding="utf-8"?>
<!-- Generator: Adobe Illustrator 25.0.1, SVG Export Plug-In . SVG Version: 6.00 Build 0)  -->
<svg version="1.1" id="Layer_1" xmlns="http://www.w3.org/2000/svg" xmlns:xlink="http://www.w3.org/1999/xlink" x="0px" y="0px"
	 viewBox="0 0 792 228" style="enable-background:new 0 0 792 228;" xml:space="preserve">
<style type="text/css">
	.st0{fill:#FFFFFF;}
</style>
<g>
	<polygon class="st0" points="193.42,196.21 232.58,196.21 232.58,91.82 193.42,91.82 	"/>
	<polygon class="st0" points="193.42,80.05 232.58,80.05 232.58,53.28 193.42,53.28 	"/>
	<polygon class="st0" points="288.34,53.28 288.34,196.21 249.18,196.21 249.18,53.28 	"/>
	<polygon class="st0" points="344,53.28 344,196.21 304.84,196.21 304.84,53.28 	"/>
	<polygon class="st0" points="741.84,94.68 715.14,196.21 699.18,196.21 672.86,117.95 646.71,196.21 630.84,196.21 603.87,94.68 
		621.85,94.68 640.66,173.31 666.25,94.68 680.47,94.68 706.71,173.31 724.5,94.68 	"/>
	<path class="st0" d="M97.99,26.87v106.59c0,17.31,6.22,25.96,18.66,25.96c5.3,0,9.81-1.8,13.5-5.41c3.7-3.61,5.55-7.98,5.55-13.11
		c0-5.3-1.74-9.76-5.22-13.37c-3.48-3.61-7.74-5.41-12.79-5.41c-3.57,0-7.65,1.56-12.26,4.7V73.07c5.74-0.52,10.09-0.78,13.05-0.78
		c18.35,0,34.07,6.61,47.16,19.83c13.09,13.22,19.64,29.14,19.64,47.75c0,19.05-6.65,35.1-19.96,48.14
		c-13.31,13.05-29.66,19.57-49.06,19.57c-9.74,0-19.24-2.13-28.51-6.39c-9.26-4.26-16.9-10-22.9-17.22
		c-10.44-12.53-15.66-28.75-15.66-48.67V26.87H97.99L97.99,26.87z"/>
	<path class="st0" d="M579.68,134.13c-0.06-8.97-2.34-15.91-6.83-20.81c-4.49-4.91-11.33-7.36-20.5-7.36
		c-9.23,0-16.59,2.7-22.06,8.09c-5.47,5.39-8.58,12.09-9.31,20.09h58.7V134.13z M596.47,147.22h-75.5c0,6.24,0.95,11.68,2.84,16.31
		c1.89,4.64,4.49,8.44,7.8,11.41c3.18,2.91,6.96,5.09,11.33,6.54s9.19,2.18,14.45,2.18c6.97,0,13.99-1.38,21.05-4.13
		c7.06-2.76,12.09-5.47,15.09-8.14h0.92v18.63c-5.81,2.42-11.74,4.45-17.79,6.09c-6.06,1.64-12.42,2.45-19.08,2.45
		c-17,0-30.27-4.56-39.81-13.68c-9.54-9.12-14.31-22.07-14.31-38.85c0-16.6,4.57-29.78,13.71-39.54
		c9.14-9.76,21.18-14.63,36.1-14.63c13.82,0,24.48,4,31.97,12s11.24,19.36,11.24,34.08v9.28H596.47z"/>
	<path class="st0" d="M489.67,196.71h-16.14V95.18h16.14L489.67,196.71L489.67,196.71z M490.7,78.19h-18.2V60.47h18.2V78.19
		L490.7,78.19z"/>
	<polygon class="st0" points="456.89,94.68 416.18,196.21 399.16,196.21 358.73,94.68 377.1,94.68 408.26,175.49 439.15,94.68 	"/>
</g>
</svg>
