<?xml version="1.0" encoding="utf-8"?>
<!-- Generator: Adobe Illustrator 25.0.1, SVG Export Plug-In . SVG Version: 6.00 Build 0)  -->
<svg version="1.1" id="Layer_1" xmlns="http://www.w3.org/2000/svg" xmlns:xlink="http://www.w3.org/1999/xlink" x="0px" y="0px"
	 viewBox="0 0 57.41 49.07" style="enable-background:new 0 0 57.41 49.07;" xml:space="preserve">
<style type="text/css">
	.st0{fill:url(#SVGID_1_);}
	.st1{fill:url(#SVGID_2_);}
</style>
<g>
	<linearGradient id="SVGID_1_" gradientUnits="userSpaceOnUse" x1="55.01" y1="24.2403" x2="1.3876" y2="24.2403">
		<stop  offset="0" style="stop-color:#3AC0F0"/>
		<stop  offset="0.1882" style="stop-color:#38B3E7"/>
		<stop  offset="0.5387" style="stop-color:#3490CE"/>
		<stop  offset="1" style="stop-color:#2E59A8"/>
	</linearGradient>
	<path class="st0" d="M48,21.49l3.41-3.03l-0.66-2.84l-5.21-0.85l-4.55-5.4V4.06l-2.84-1.42l-3.88,2.84L26.88,5.1l-3.51-3.5
		l-3.22,0.95l-0.57,4.92l-5.78,4.68l-4.92-0.07l-1.45,2.91l3.15,3.95l-0.85,7.67l-3.69,3.31l1.12,3.04L12,33.71l4.93,5.59v5.12
		l2.65,1.42l4.62-2.94l7.23,0.48l3.03,3.5l3.31-0.85l0.67-5.02l5.68-4.74h4.93l1.32-3.12l-2.65-3.32L48,21.49z M28.73,35.04
		c-5.97,0-10.8-4.83-10.8-10.8c0-5.96,4.83-10.8,10.8-10.8c5.96,0,10.8,4.84,10.8,10.8C39.53,30.21,34.69,35.04,28.73,35.04z"/>
	<linearGradient id="SVGID_2_" gradientUnits="userSpaceOnUse" x1="55.01" y1="24.2398" x2="1.3876" y2="24.2398">
		<stop  offset="0" style="stop-color:#3AC0F0"/>
		<stop  offset="0.1882" style="stop-color:#38B3E7"/>
		<stop  offset="0.5387" style="stop-color:#3490CE"/>
		<stop  offset="1" style="stop-color:#2E59A8"/>
	</linearGradient>
	<path class="st1" d="M34.42,47.02l-3.05-3.52l-7.14-0.47l-4.65,2.96l-2.78-1.49v-5.15l-4.87-5.52l-4.87-0.75L5.9,29.88l3.72-3.33
		l0.84-7.57l-3.17-3.97l1.52-3.05l4.95,0.07l5.71-4.62l0.57-4.95l3.37-0.99l3.53,3.52l7.3,0.38l3.91-2.86l2.98,1.49v5.34l4.49,5.33
		l5.25,0.86l0.7,2.99l-3.43,3.04l-0.28,8.24l2.67,3.34l-1.38,3.27h-4.97l-5.61,4.68l-0.67,5.06l-0.08,0.02L34.42,47.02z
		 M24.17,42.77l0.04,0l7.28,0.48l0.03,0.04l2.98,3.44l3.15-0.81l0.67-4.98l5.75-4.8h4.89l1.26-2.98l-2.63-3.3l0-0.05l0.28-8.39
		l3.39-3.02l-0.62-2.69l-5.17-0.84l-0.03-0.04l-4.58-5.44V4.14l-2.7-1.35l-3.85,2.82l-0.04,0l-7.44-0.38l-3.49-3.48l-3.07,0.91
		L19.7,7.54l-0.04,0.03l-5.81,4.71l-0.05,0l-4.84-0.07l-1.38,2.77l3.13,3.93l-0.01,0.05l-0.85,7.72L9.82,26.7l-3.63,3.25l1.07,2.89
		l4.81,0.75l0.03,0.03l4.96,5.62v5.09l2.52,1.35L24.17,42.77z M28.73,35.17c-6.02,0-10.92-4.9-10.92-10.93
		c0-6.02,4.9-10.92,10.92-10.92c6.02,0,10.93,4.9,10.93,10.92C39.66,30.26,34.76,35.17,28.73,35.17z M28.73,13.57
		c-5.89,0-10.67,4.79-10.67,10.67s4.79,10.68,10.67,10.68s10.68-4.79,10.68-10.68S34.62,13.57,28.73,13.57z"/>
</g>
</svg>
