<?xml version="1.0" encoding="utf-8"?>
<!-- Generator: Adobe Illustrator 25.0.1, SVG Export Plug-In . SVG Version: 6.00 Build 0)  -->
<svg version="1.1" id="Layer_1" xmlns="http://www.w3.org/2000/svg" xmlns:xlink="http://www.w3.org/1999/xlink" x="0px" y="0px"
	 viewBox="0 0 57.41 49.07" style="enable-background:new 0 0 57.41 49.07;" xml:space="preserve">
<style type="text/css">
	.st0{fill:url(#SVGID_1_);}
	.st1{fill:url(#SVGID_2_);}
	.st2{fill:url(#SVGID_3_);}
	.st3{fill:url(#SVGID_4_);}
</style>
<g>
	<linearGradient id="SVGID_1_" gradientUnits="userSpaceOnUse" x1="53.952" y1="28.8576" x2="8.7309" y2="28.8576">
		<stop  offset="0" style="stop-color:#3AC0F0"/>
		<stop  offset="0.1493" style="stop-color:#39BDEE"/>
		<stop  offset="0.2993" style="stop-color:#38B5E9"/>
		<stop  offset="0.4498" style="stop-color:#36A9E0"/>
		<stop  offset="0.6006" style="stop-color:#3497D3"/>
		<stop  offset="0.7517" style="stop-color:#3282C4"/>
		<stop  offset="0.901" style="stop-color:#2F6AB4"/>
		<stop  offset="1" style="stop-color:#2E59A8"/>
	</linearGradient>
	<polygon class="st0" points="40.18,46.21 13.64,46.21 13.64,11.5 32.66,11.5 32.66,14.25 16.39,14.25 16.39,43.46 37.43,43.46 
		37.43,19.69 40.18,19.69 	"/>
	<linearGradient id="SVGID_2_" gradientUnits="userSpaceOnUse" x1="53.952" y1="15.6174" x2="8.7309" y2="15.6174">
		<stop  offset="0" style="stop-color:#3AC0F0"/>
		<stop  offset="0.1493" style="stop-color:#39BDEE"/>
		<stop  offset="0.2993" style="stop-color:#38B5E9"/>
		<stop  offset="0.4498" style="stop-color:#36A9E0"/>
		<stop  offset="0.6006" style="stop-color:#3497D3"/>
		<stop  offset="0.7517" style="stop-color:#3282C4"/>
		<stop  offset="0.901" style="stop-color:#2F6AB4"/>
		<stop  offset="1" style="stop-color:#2E59A8"/>
	</linearGradient>
	<polygon class="st1" points="32.66,11.52 32.66,19.72 40.19,19.7 	"/>
	<linearGradient id="SVGID_3_" gradientUnits="userSpaceOnUse" x1="53.952" y1="24.1933" x2="8.7309" y2="24.1933">
		<stop  offset="0" style="stop-color:#3AC0F0"/>
		<stop  offset="0.1493" style="stop-color:#39BDEE"/>
		<stop  offset="0.2993" style="stop-color:#38B5E9"/>
		<stop  offset="0.4498" style="stop-color:#36A9E0"/>
		<stop  offset="0.6006" style="stop-color:#3497D3"/>
		<stop  offset="0.7517" style="stop-color:#3282C4"/>
		<stop  offset="0.901" style="stop-color:#2F6AB4"/>
		<stop  offset="1" style="stop-color:#2E59A8"/>
	</linearGradient>
	<polygon class="st2" points="44.75,41.19 39.77,41.19 39.77,38.44 42,38.44 42,9.95 22.1,9.95 22.1,11.88 19.35,11.88 19.35,7.2 
		44.75,7.2 	"/>
	<linearGradient id="SVGID_4_" gradientUnits="userSpaceOnUse" x1="53.952" y1="19.9758" x2="8.7309" y2="19.9758">
		<stop  offset="0" style="stop-color:#3AC0F0"/>
		<stop  offset="0.1493" style="stop-color:#39BDEE"/>
		<stop  offset="0.2993" style="stop-color:#38B5E9"/>
		<stop  offset="0.4498" style="stop-color:#36A9E0"/>
		<stop  offset="0.6006" style="stop-color:#3497D3"/>
		<stop  offset="0.7517" style="stop-color:#3282C4"/>
		<stop  offset="0.901" style="stop-color:#2F6AB4"/>
		<stop  offset="1" style="stop-color:#2E59A8"/>
	</linearGradient>
	<polygon class="st3" points="49.67,37.09 43.79,37.09 43.79,34.34 46.92,34.34 46.92,5.61 27.56,5.61 27.56,8.26 24.81,8.26 
		24.81,2.86 49.67,2.86 	"/>
</g>
</svg>
