<?xml version="1.0" encoding="utf-8"?>
<!-- Generator: Adobe Illustrator 25.0.1, SVG Export Plug-In . SVG Version: 6.00 Build 0)  -->
<svg version="1.1" id="Layer_1" xmlns="http://www.w3.org/2000/svg" xmlns:xlink="http://www.w3.org/1999/xlink" x="0px" y="0px"
	 viewBox="0 0 57.4 49.1" style="enable-background:new 0 0 57.4 49.1;" xml:space="preserve">
<style type="text/css">
	.st0{fill:#FFFFFF;}
</style>
<g>
	<polygon class="st0" points="40.2,46.2 13.6,46.2 13.6,11.5 32.7,11.5 32.7,14.2 16.4,14.2 16.4,43.5 37.4,43.5 37.4,19.7 
		40.2,19.7 	"/>
	<polygon class="st0" points="32.7,11.5 32.7,19.7 40.2,19.7 	"/>
	<polygon class="st0" points="44.8,41.2 39.8,41.2 39.8,38.4 42,38.4 42,9.9 22.1,9.9 22.1,11.9 19.4,11.9 19.4,7.2 44.8,7.2 	"/>
	<polygon class="st0" points="49.7,37.1 43.8,37.1 43.8,34.3 46.9,34.3 46.9,5.6 27.6,5.6 27.6,8.3 24.8,8.3 24.8,2.9 49.7,2.9 	"/>
</g>
</svg>
